<svg xmlns="http://www.w3.org/2000/svg" viewBox="0 0 100 100" width="100" height="100">
    <!-- Folder Shape -->
    <rect x="10" y="30" width="80" height="50" fill="none" stroke="black" stroke-width="2"/>

    <!-- Folder Tab -->
    <rect x="10" y="25" width="30" height="5" fill="none" stroke="black" stroke-width="2"/>

    <!-- Zipper -->
    <rect x="50.5" y="30" width="2" height="50" fill="black"/>
    <rect x="55" y="32.5" width="5" height="2.5" fill="black"/>
    <rect x="46" y="35" width="5" height="2.5" fill="black"/>
    <rect x="55" y="37.5" width="5" height="2.5" fill="black"/>
    <rect x="46" y="40" width="5" height="2.5" fill="black"/>
    <rect x="55" y="42.5" width="5" height="2.5" fill="black"/>
    <rect x="46" y="45" width="5" height="2.5" fill="black"/>
    <rect x="55" y="47.5" width="5" height="2.5" fill="black"/>
    <rect x="46" y="50" width="5" height="2.5" fill="black"/>
    <rect x="55" y="52.5" width="5" height="2.5" fill="black"/>
    <rect x="46" y="55" width="5" height="2.5" fill="black"/>
    <rect x="55" y="57.5" width="5" height="2.5" fill="black"/>
    <rect x="46" y="60" width="5" height="2.5" fill="black"/>
    <rect x="55" y="62.5" width="5" height="2.5" fill="black"/>
    <rect x="46" y="65" width="5" height="2.5" fill="black"/>
    <rect x="55" y="67.5" width="5" height="2.5" fill="black"/>
    <rect x="46" y="70" width="5" height="2.5" fill="black"/>
    <rect x="55" y="72.5" width="5" height="2.5" fill="black"/>
    <rect x="46" y="75" width="5" height="2.5" fill="black"/>
</svg>